<svg xmlns="http://www.w3.org/2000/svg" xmlns:xlink="http://www.w3.org/1999/xlink" aria-hidden="true" role="img" class="iconify iconify--logos" width="31.88" height="32" preserveAspectRatio="xMidYMid meet" viewBox="0 0 256 257"><defs><linearGradient id="IconifyId1813888fe1fbc4666366" x1="-.828%" x2="57.636%" y1="7.652%" y2="78.411%"><stop offset="0%" stop-color="#61DAFB"></stop><stop offset="100%" stop-color="#0096D6"></stop></linearGradient></defs><path fill="url(#IconifyId1813888fe1fbc4666366)" d="M210.483 73.824a11.653 11.653 0 0 0-8.44-8.44c-27.705-5.301-84.768-5.301-112.473 0a11.653 11.653 0 0 0-8.44 8.44c-5.299 27.693-5.299 84.763 0 112.453a11.653 11.653 0 0 0 8.44 8.44c27.705 5.301 84.768 5.301 112.473 0a11.653 11.653 0 0 0 8.44-8.44c5.3-27.69 5.3-84.76 0-112.453ZM82.438 164.559a7.504 7.504 0 0 1-7.504-7.504a7.504 7.504 0 0 1 7.504-7.504a7.504 7.504 0 0 1 0 15.008Zm20.105 0a7.504 7.504 0 0 1-7.504-7.504a7.504 7.504 0 0 1 7.504-7.504a7.504 7.504 0 0 1 0 15.008Zm20.105 0a7.504 7.504 0 0 1-7.504-7.504a7.504 7.504 0 0 1 7.504-7.504a7.504 7.504 0 0 1 0 15.008Zm58.328-40.21a7.504 7.504 0 0 1-7.504-7.504a7.504 7.504 0 0 1 7.504-7.504a7.504 7.504 0 0 1 0 15.008Zm-20.105 0a7.504 7.504 0 0 1-7.504-7.504a7.504 7.504 0 0 1 7.504-7.504a7.504 7.504 0 0 1 0 15.008Zm-20.105 0a7.504 7.504 0 0 1-7.504-7.504a7.504 7.504 0 0 1 7.504-7.504a7.504 7.504 0 0 1 0 15.008Zm-20.105 0a7.504 7.504 0 0 1-7.504-7.504a7.504 7.504 0 0 1 7.504-7.504a7.504 7.504 0 0 1 0 15.008Z"></path></svg>
